<?xml version="1.0" standalone="no"?>
<!DOCTYPE svg PUBLIC "-//W3C//DTD SVG 20010904//EN"
 "http://www.w3.org/TR/2001/REC-SVG-20010904/DTD/svg10.dtd">
<svg version="1.0" xmlns="http://www.w3.org/2000/svg"
 width="270.000000pt" height="270.000000pt" viewBox="0 0 270.000000 270.000000"
 preserveAspectRatio="xMidYMid meet">
<metadata>
Created by potrace 1.11, written by Peter Selinger 2001-2013
</metadata>
<g transform="translate(0.000000,270.000000) scale(0.100000,-0.100000)"
fill="#000000" stroke="none">
<path d="M380 1385 l0 -855 985 0 985 0 0 855 0 855 -985 0 -985 0 0 -855z
m1960 0 l0 -845 -975 0 -975 0 0 845 0 845 975 0 975 0 0 -845z"/>
<path d="M764 1885 c-110 -24 -200 -85 -251 -172 -54 -93 -82 -275 -64 -427
32 -274 159 -407 402 -423 311 -20 479 161 479 517 0 238 -74 402 -213 469
-104 51 -227 64 -353 36z m193 -86 c54 -45 79 -232 69 -510 -6 -186 -17 -253
-50 -301 -38 -57 -123 -63 -171 -12 -38 41 -47 96 -52 345 -7 330 11 448 76
485 31 17 103 13 128 -7z"/>
<path d="M1460 1380 l0 -500 145 0 145 0 0 240 0 240 40 0 c22 0 56 -6 75 -14
56 -24 68 -59 76 -241 4 -88 13 -175 19 -192 l12 -33 154 0 c85 0 154 2 154 5
0 4 -6 18 -14 33 -14 28 -30 111 -42 222 -13 124 -42 173 -128 217 l-49 25 58
23 c67 28 99 55 126 107 81 158 -29 324 -238 358 -32 6 -165 10 -295 10 l-238
0 0 -500z m435 390 c53 -25 75 -70 75 -150 0 -122 -54 -180 -168 -180 l-52 0
0 175 0 175 52 0 c31 0 68 -8 93 -20z"/>
</g>
</svg>
